<svg style="width: 320px; height: 65.92118350516921px; position: absolute; top: 50%; left: 50%; transform: translate(-50%, -50%) scale(1); z-index: 0; cursor: pointer;" width="320" height="65.92118350516921"><defs id="SvgjsDefs1001"></defs><g fill="#ffffff" transform="matrix(1.0520445487955972,0,0,1.0520445487955972,-2.6027198131150477,-19.631151119996584)" id="SvgjsG1007"><title xmlns="http://www.w3.org/2000/svg">Artboard 1 copy 4</title><g data-name="Layer 2" xmlns="http://www.w3.org/2000/svg"><path d="M97.51,65.52a9.6,9.6,0,0,0-2.08-3.35,12.09,12.09,0,0,1-1.61-2.27,9,9,0,0,1-.77-3.37,20.13,20.13,0,0,1,0-2.34,3.65,3.65,0,0,0-.1-1.3,10.85,10.85,0,0,0-1.84-2.71l-2.43-4.82a10.1,10.1,0,0,0-1-1.66,8.33,8.33,0,0,0-.9-1,8.21,8.21,0,0,1-.58-.6,10.83,10.83,0,0,1-1.31-1.89,37.18,37.18,0,0,1-3.55-8.4,1.71,1.71,0,0,0-.61-1,0,0,0,0,0,0,0s0,0,0,0l-.06,0,0,0-.08,0-.13,0h0a1.78,1.78,0,0,0-.56.18c-.3.13-1.08.47-1.34.33a.76.76,0,0,1-.18-.18A16.09,16.09,0,0,1,76,27.7a12.84,12.84,0,0,1-.54-1.36c-.13-.38-.27-.76-.43-1.13a11.25,11.25,0,0,0-8.19-6.55h-.11a.51.51,0,0,0-.27.09h0c-.61.46-1.26.92-1.94,1.4a36.1,36.1,0,0,0-5.33,4.28,16.63,16.63,0,0,0-1.52,1.94c-.89,1.26-1.72,2.45-3,2.86a6.28,6.28,0,0,1-.86.19c-.25,0-.5.09-.74.15h0c-2.36.61-3.86,2.74-5.06,4.86a14.93,14.93,0,0,0-1.23-1.72,22.67,22.67,0,0,0-3-2.74c-1.63-1.32-3.17-2.56-3.94-4.35l0-.06a.22.22,0,0,0-.05-.08s0,0,0,0h0l-.06,0-.08-.05,0,0h-.08l-.06,0h-.12l-.1,0h0s0,0-.06,0l-.08.06h0c-1.77,1.77-2.65,4.17-3.49,6.48l-.07.19c-.72,2-2.07,4.45-4.37,4.94-.17,0-.35.06-.53.09a4.37,4.37,0,0,0-1.28.32,4.69,4.69,0,0,0-2,2.38c-.44.87-.86,1.69-1.62,1.93a3.56,3.56,0,0,1-1,.11,5,5,0,0,0-.93.06c-1.75.3-2.79,2-3.35,3.28-.14.32-.26.65-.39,1A8,8,0,0,1,18.53,49a23.68,23.68,0,0,1-2.29,1c-1.18.39-2.62,2.4-2.73,2.55a3.88,3.88,0,0,0-1,2,1.15,1.15,0,0,1-.07.27c-.07.1-.38.09-.64.09s-.27,0-.4,0A3.55,3.55,0,0,0,8.6,57.18c-.1.2-.19.41-.28.61a5.08,5.08,0,0,1-1.26,2,2.26,2.26,0,0,1-1.72.46l-.2,0a1.76,1.76,0,0,0-1.28.11,1.83,1.83,0,0,0-.69,1.14l-.68,2.6a.5.5,0,0,0,.36.61H3a.51.51,0,0,0,.49-.37l.68-2.6c0-.16.12-.46.24-.53a1,1,0,0,1,.58,0l.23,0a3.22,3.22,0,0,0,2.5-.68A5.9,5.9,0,0,0,9.23,58.2l.27-.59c.3-.64,1-1.71,1.92-1.77.1,0,.21,0,.32,0a1.6,1.6,0,0,0,1.47-.52,1.68,1.68,0,0,0,.26-.73,2.84,2.84,0,0,1,.8-1.42,7.58,7.58,0,0,1,2.28-2.25,25.1,25.1,0,0,0,2.51-1.11.38.38,0,0,0,.14-.11,8.94,8.94,0,0,0,1.69-3.1c.12-.32.24-.64.37-1a6.94,6.94,0,0,1,.41-.82,10.28,10.28,0,0,0,.41,1.89,1.12,1.12,0,0,0,0,.13v0l-2,3a17,17,0,0,1-1.54,2l-.41.41a9.6,9.6,0,0,0-.69.74c-.24.29-.46.61-.67.92l-.2.31a22.77,22.77,0,0,1-3.1,3.48c-.86.82-1.75,1.61-2.63,2.4-.65.58-1.3,1.16-2,1.72l-.37.32a17.87,17.87,0,0,0-2.64,2.58c-.38.5-.71,1-1,1.56A9.1,9.1,0,0,1,3,68.69a.49.49,0,0,0-.07.7.5.5,0,0,0,.39.18.45.45,0,0,0,.31-.11,9.85,9.85,0,0,0,2-2.6c.32-.52.62-1,1-1.47A16.78,16.78,0,0,1,9.1,63l.38-.33c.67-.57,1.32-1.15,2-1.73.89-.8,1.78-1.6,2.65-2.42a24.08,24.08,0,0,0,3.23-3.65l.21-.31c.2-.29.39-.58.61-.84a7.94,7.94,0,0,1,.63-.67l.43-.44a16.93,16.93,0,0,0,1.64-2.17L22.46,48A19.13,19.13,0,0,1,23,50.58,18.18,18.18,0,0,0,20.43,54a16.58,16.58,0,0,1-2.35,3.18c-.21.21-.43.4-.65.6s-.57.5-.83.78-.42.46-.63.69a8.26,8.26,0,0,1-1,1,7,7,0,0,1-.84.59c-.22.15-.44.29-.65.45a13.5,13.5,0,0,0-3,3.54l-.32.47a48,48,0,0,1-6,7.19.5.5,0,0,0,0,.71.48.48,0,0,0,.7,0A48.48,48.48,0,0,0,11,65.87l.32-.47a12.61,12.61,0,0,1,2.8-3.3c.19-.14.4-.28.6-.41a9.32,9.32,0,0,0,.93-.66,8.64,8.64,0,0,0,1.07-1.12c.19-.22.38-.44.58-.65s.52-.49.78-.72l.7-.64a18.32,18.32,0,0,0,2.49-3.35,20.59,20.59,0,0,1,1.88-2.68,9.92,9.92,0,0,1-.82,5c-.09.19-.2.38-.3.57h0a32,32,0,0,1-2.87,3.11l-.45.45-.5.49c-.4.39-.81.78-1.18,1.22a17.37,17.37,0,0,0-1.24,1.79c-.14.22-.28.44-.43.66-.58.89-1.26,1.76-1.95,2.64l-2,2.52a25.62,25.62,0,0,1-2.21,2.57L9,73.1a8.16,8.16,0,0,0-.94,1,6.65,6.65,0,0,0-.41.62,3.28,3.28,0,0,1-.77,1,5.26,5.26,0,0,1-.47.27,2,2,0,0,0-1.19,1.16.49.49,0,0,0,.34.61.34.34,0,0,0,.14,0,.49.49,0,0,0,.48-.36c.06-.2.3-.34.69-.54a4.83,4.83,0,0,0,.59-.35,4.11,4.11,0,0,0,1-1.25c.12-.18.23-.37.36-.54a6.73,6.73,0,0,1,.83-.87l.27-.26a26.11,26.11,0,0,0,2.3-2.68l2-2.56c.66-.85,1.35-1.73,2-2.66.15-.22.29-.45.44-.68a14.67,14.67,0,0,1,1.16-1.68,14.67,14.67,0,0,1,1.1-1.14l.52-.5.45-.45.14-.14a42.22,42.22,0,0,0-1.52,4.34,29.37,29.37,0,0,1-2.28,5.84l-3,3.22a8.05,8.05,0,0,0-1,1.25,7.76,7.76,0,0,0-.46.91,4.8,4.8,0,0,1-.56,1,5.5,5.5,0,0,1-.92.87,3.85,3.85,0,0,0-1.51,1.88.51.51,0,0,0,.36.62h.13a.49.49,0,0,0,.48-.37,3,3,0,0,1,1.17-1.36,6.24,6.24,0,0,0,1.08-1,6.23,6.23,0,0,0,.68-1.23c.13-.27.25-.54.4-.8A7.07,7.07,0,0,1,14,75.16l3-3.26s0,0,0,0,0,0,.05,0a28.94,28.94,0,0,0,2.4-6.11,28.92,28.92,0,0,1,2.29-5.88c.18-.31.37-.61.56-.91.33-.54.67-1.09,1-1.68,1.2-2.51,1.25-5.7.18-9.47.3.16.59.34.89.54a6.33,6.33,0,0,0,2.07,1h.11A.5.5,0,0,0,27,49a.49.49,0,0,0-.38-.59,5.6,5.6,0,0,1-1.74-.88,7.39,7.39,0,0,0-1.79-.92,6.89,6.89,0,0,1-.39-3A2.46,2.46,0,0,1,23.86,43a4.78,4.78,0,0,1,.77,0,4.28,4.28,0,0,0,1.31-.16,4.14,4.14,0,0,0,2.2-2.42c.19-.36.38-.71.58-1a2.89,2.89,0,0,0,.21.49,2.65,2.65,0,0,0,1.08,1,7,7,0,0,0-1.35,1.61l-.14.24a3.91,3.91,0,0,1-.4.6.82.82,0,0,1-.55.33.5.5,0,0,0,0,1h0a1.79,1.79,0,0,0,1.3-.68,4.59,4.59,0,0,0,.51-.76l.13-.22a5.93,5.93,0,0,1,1.41-1.62,1.72,1.72,0,0,1,.39.31,3.15,3.15,0,0,1,.33.44c.09.11.17.24.27.36a2.8,2.8,0,0,0-.54.69,3.18,3.18,0,0,0-.16.32l-.09.2a6,6,0,0,1-2,1.94.5.5,0,0,0,.29.91.47.47,0,0,0,.28-.09A6.83,6.83,0,0,0,32,44.05l.11-.23c0-.09.08-.18.13-.27a1.76,1.76,0,0,1,.48-.54,1.17,1.17,0,0,0,.38.07h.07a.49.49,0,0,0,.47-.52.47.47,0,0,0-.52-.48c-.23,0-.4-.24-.67-.63a4.57,4.57,0,0,0-.42-.54,4,4,0,0,0-1.2-.81L30.7,40a2.1,2.1,0,0,1-.9-.7,1.45,1.45,0,0,1-.23-.76.5.5,0,0,0,.15-.17,3.89,3.89,0,0,1,1-.22l.6-.1c2.75-.58,4.29-3.36,5.1-5.58l.07-.18a21.18,21.18,0,0,1,2.33-5c0,.52-.05,1-.06,1.55,0,.14-.08.33-.13.57a5.3,5.3,0,0,1-.32,1.22l-.18.3a4.83,4.83,0,0,0-.33.64,4.36,4.36,0,0,0-.26,1.14l0,.2A10.06,10.06,0,0,1,34.14,39a.5.5,0,0,0,.33.88.45.45,0,0,0,.32-.13,11,11,0,0,0,3.67-6.69l0-.2a4.06,4.06,0,0,1,.2-.91l.08-.16c.05,1.25.14,2.46.25,3.63h0a3.57,3.57,0,0,1-.2,1,2.45,2.45,0,0,1-.45.54,16.76,16.76,0,0,0-2.42,3.19.5.5,0,0,0,.18.68.48.48,0,0,0,.26.07.51.51,0,0,0,.43-.25,16.17,16.17,0,0,1,2.31-3h0a3.59,3.59,0,0,1-.28,1.36,4.74,4.74,0,0,1-.59.94c-.14.21-.29.41-.42.62a11,11,0,0,0-1.08,2.74c-.17.56-.32,1.09-.53,1.6a18.35,18.35,0,0,1-1.66,2.95l-.09.13h0a32.72,32.72,0,0,0-2.85,4c-.35.56-.72,1.13-1.1,1.7a65.46,65.46,0,0,1-4.22,5.59l-.23.27A17,17,0,0,0,24.2,62c-.2.37-.37.75-.55,1.13s-.24.54-.38.8a14.8,14.8,0,0,1-1.67,2.49l-.19.24a8.54,8.54,0,0,0-1.28,1.88,8.29,8.29,0,0,0-.39,1.08,5.7,5.7,0,0,1-.49,1.26,6,6,0,0,1-.43.6A3.13,3.13,0,0,0,18,73.26a.5.5,0,0,0,.47.53h0a.51.51,0,0,0,.5-.47,2.45,2.45,0,0,1,.63-1.21,8,8,0,0,0,.5-.69,6.7,6.7,0,0,0,.59-1.49A6.78,6.78,0,0,1,21,69a7.93,7.93,0,0,1,1.14-1.66l.2-.24a15.77,15.77,0,0,0,1.78-2.66c.14-.28.27-.56.4-.85s.33-.71.52-1.05a14.9,14.9,0,0,1,1.76-2.38l.23-.27a67.49,67.49,0,0,0,4.28-5.68c.36-.54.7-1.07,1-1.6,0,.14,0,.29,0,.43l0,0a4.12,4.12,0,0,0-.82,2.2,10.84,10.84,0,0,0,.07,2.61,41.94,41.94,0,0,1-4.12,6.5c-.95,1.32-1.94,2.69-2.81,4.1-.53.85-1,1.71-1.52,2.58a35.59,35.59,0,0,1-4.18,6.24A.5.5,0,0,0,19,78a.55.55,0,0,0,.34.13.51.51,0,0,0,.37-.17A36.33,36.33,0,0,0,24,71.53c.49-.86,1-1.72,1.5-2.56.85-1.38,1.83-2.73,2.77-4a51,51,0,0,0,3.58-5.44c0,.22.09.44.13.66a26.52,26.52,0,0,1,.47,2.9c0,.21,0,.43,0,.64h0a7.34,7.34,0,0,1-1.34,2.54l-.23.27a5.65,5.65,0,0,0-.76,1.12,5.06,5.06,0,0,0-.32,1c0,.14-.07.28-.11.42a10.17,10.17,0,0,1-.63,1.43c-.82,1.63-1.68,3.33-2.65,4.93l-.22.35a16.85,16.85,0,0,0-1,1.87,8,8,0,0,0-.61,2.2.51.51,0,0,0,.43.56h.07a.49.49,0,0,0,.49-.43A7.2,7.2,0,0,1,26.11,78a14.26,14.26,0,0,1,1-1.74l.23-.37c1-1.63,1.85-3.34,2.68-5a10.44,10.44,0,0,0,.69-1.58c0-.16.09-.31.13-.47a4.2,4.2,0,0,1,.25-.78,4.6,4.6,0,0,1,.63-.9l.24-.29a8.22,8.22,0,0,0,.82-1.23,12.43,12.43,0,0,0,.47,1.42l.13.35a26.2,26.2,0,0,1,.81,2.65,7.37,7.37,0,0,0-.87,1.64c-.08.2-.16.39-.24.56a16,16,0,0,1-2,3,17.25,17.25,0,0,0-2.08,3.07c-.1.21-.2.42-.29.63a5.55,5.55,0,0,1-.87,1.53.49.49,0,0,0,0,.7.46.46,0,0,0,.33.13.49.49,0,0,0,.37-.16,6.24,6.24,0,0,0,1-1.79c.09-.2.18-.41.28-.6a15.73,15.73,0,0,1,2-2.89,16.43,16.43,0,0,0,2.15-3.22c.09-.18.17-.38.26-.59s.17-.4.26-.59c0,.25.1.49.14.75l0,.12a.64.64,0,0,0,.06.18,13.42,13.42,0,0,1,1.48,4.25.49.49,0,0,0,.48.41h.1a.51.51,0,0,0,.4-.59,14.71,14.71,0,0,0-1.55-4.5v0a25.67,25.67,0,0,0-1.31-5l-.13-.35a10.55,10.55,0,0,1-.51-1.6,11.27,11.27,0,0,1-.15-1.46c0-.23,0-.45,0-.67A27,27,0,0,0,33,60c-.1-.53-.2-1-.29-1.56a4.26,4.26,0,0,1,2.89,1.06c.14.12.27.26.41.39a3.86,3.86,0,0,0,1.93,1.24H38a.49.49,0,0,0,.49-.41.51.51,0,0,0-.4-.59,3,3,0,0,1-1.41-1l-.44-.41a5.24,5.24,0,0,0-3.7-1.34,9.28,9.28,0,0,1,0-2,3.13,3.13,0,0,1,.64-1.74l.13-.21a.48.48,0,0,0,.06-.24c.06-1.74,1-3.24,2.07-4.83a18.3,18.3,0,0,0,1.76-3.11c.22-.56.39-1.14.56-1.69a9.71,9.71,0,0,1,1-2.5c.12-.19.25-.38.38-.56a6.91,6.91,0,0,0,.69-1.11,6.85,6.85,0,0,0,.29-3.52v-.11a58.55,58.55,0,0,1-.28-8.21,18.43,18.43,0,0,0,3.36,3.24A21.48,21.48,0,0,1,46,33.37a20.39,20.39,0,0,1,2.23,3.5,17.8,17.8,0,0,0,2.88,4.2l0,0a8,8,0,0,0,.93.8,12.28,12.28,0,0,0,1.42.87,6.48,6.48,0,0,1,2.31,1.8,7.19,7.19,0,0,1,.5,1c.11.24.23.49.36.73a10.6,10.6,0,0,0,3.08,3.14,14,14,0,0,1,2.27,2,14.2,14.2,0,0,1,1.45,2.3,9.13,9.13,0,0,0,2.8,3.57c.23.14.47.27.71.4a4.86,4.86,0,0,1,1,.65,5.15,5.15,0,0,1,.47.56,5,5,0,0,0,.58.67,5.38,5.38,0,0,0,2,1,10.33,10.33,0,0,1,1,.39,9.36,9.36,0,0,1,2.68,2.42,8.63,8.63,0,0,0,3.56,2.86.47.47,0,0,0,.16,0,.5.5,0,0,0,.16-1,7.65,7.65,0,0,1-3.12-2.57,10.16,10.16,0,0,0-3-2.65,10,10,0,0,0-1.07-.44,4.74,4.74,0,0,1-1.63-.84,4.88,4.88,0,0,1-.47-.55,4.49,4.49,0,0,0-.58-.67,5,5,0,0,0-1.22-.81c-.22-.12-.43-.23-.63-.36a8.21,8.21,0,0,1-2.47-3.21,14.79,14.79,0,0,0-1.56-2.46,14.31,14.31,0,0,0-2.43-2.18,17.67,17.67,0,0,1-1.77-1.5c1.49-1.35,1.94-3.38,2.36-5.35.07-.34.14-.67.22-1a10.43,10.43,0,0,0,.16-1.08,5.41,5.41,0,0,1,.25-1.33,4.63,4.63,0,0,1,.59-1,5.4,5.4,0,0,0,.76-1.45A5.25,5.25,0,0,0,63,34.26c0-.24,0-.46,0-.67l.15.27a6.25,6.25,0,0,0,2.38,2.21.47.47,0,0,0,.27.08.48.48,0,0,0,.42-.23.5.5,0,0,0-.15-.69,5.46,5.46,0,0,1-2-1.85,3.33,3.33,0,0,0-.69-1,7.81,7.81,0,0,1,.72-1.12,5.05,5.05,0,0,0,1.18-2.59,5,5,0,0,0-.5-2.18,10.8,10.8,0,0,1-.37-1.09,2.67,2.67,0,0,1,.13-1.59v0A8.6,8.6,0,0,1,65.65,22,13.38,13.38,0,0,0,67,19.74a10.21,10.21,0,0,1,7.08,5.85c.15.36.28.73.41,1.09s.35,1,.57,1.44a17.29,17.29,0,0,0,2.4,3.53,1.61,1.61,0,0,0,.48.44,2,2,0,0,0,1.49,0,7.2,7.2,0,0,0-.09,1.23c-.24.51-1.41.62-2,.59a.52.52,0,0,0-.53.47.51.51,0,0,0,.47.53h.24a4.53,4.53,0,0,0,1.81-.35q0,.56,0,1.11a7,7,0,0,0-.79.56,4.68,4.68,0,0,1-1.75,1,.49.49,0,0,0-.49.51.51.51,0,0,0,.5.49h0A4.82,4.82,0,0,0,79.2,37l.06,0c0,.3-.06.59-.11.88a3.3,3.3,0,0,1-.25.85,3.82,3.82,0,0,1-.57.75l-3.8,4.19a.49.49,0,0,0,0,.7.51.51,0,0,0,.71,0l3.8-4.19a4.64,4.64,0,0,0,.73-1A4,4,0,0,0,80.13,38a17.82,17.82,0,0,0,.28-3.64l0-.39a9.48,9.48,0,0,1,0-1.68A38.16,38.16,0,0,0,84,40.74a11.91,11.91,0,0,0,1.43,2.06c.2.22.42.44.63.65a9.36,9.36,0,0,1,.82.86,8.89,8.89,0,0,1,.87,1.5l2.47,4.87a.41.41,0,0,0,.07.11A10.53,10.53,0,0,1,92,53.2a3,3,0,0,1,0,1,21,21,0,0,0,0,2.38,10.2,10.2,0,0,0,.87,3.74,12.76,12.76,0,0,0,1.74,2.47,8.52,8.52,0,0,1,1.89,3,.49.49,0,0,0,.48.36l.14,0A.51.51,0,0,0,97.51,65.52ZM52.8,30.72c.07.27.13.54.2.84a27.88,27.88,0,0,1-2.35,3.32c-.49.62-.95,1.23-1.37,1.87l-.2-.36c-.17-.32-.35-.64-.53-1C49.65,33.41,50.9,31.45,52.8,30.72Zm-3,7a24.2,24.2,0,0,1,1.6-2.22C52,34.78,52.63,34,53.26,33a8.94,8.94,0,0,1,.08,1.23,4.23,4.23,0,0,1-1.22,3.13,4.28,4.28,0,0,0-1.17,2A17.22,17.22,0,0,1,49.83,37.72Zm15-16.35a11,11,0,0,0-1.18,1.9c-2,.93-3.41,2.78-4.81,4.58-.56.72-1.09,1.41-1.64,2a.51.51,0,0,0,0,.71.55.55,0,0,0,.34.13.5.5,0,0,0,.37-.17c.58-.63,1.12-1.33,1.69-2.07a17.46,17.46,0,0,1,3.69-3.86,3.75,3.75,0,0,0,.09,1,7.39,7.39,0,0,0,.31.94l-.89.88-1.12,1.11a4.62,4.62,0,0,1-1.11.93l-.34.14a2.81,2.81,0,0,0-.92.54,2.73,2.73,0,0,0-.65,1.36l0,.17A6.44,6.44,0,0,1,56.55,35a.49.49,0,0,0-.07.7.51.51,0,0,0,.39.19.47.47,0,0,0,.31-.12A7.49,7.49,0,0,0,59.62,32l.05-.19a2,2,0,0,1,.38-.89,2.1,2.1,0,0,1,.6-.32l.41-.18a5.5,5.5,0,0,0,1.38-1.12c.35-.36.73-.73,1.1-1.1l.57-.56a3,3,0,0,1,.15,1,4.24,4.24,0,0,1-1,2.07,8.08,8.08,0,0,0-.95,1.58l-.77.74a15.17,15.17,0,0,0-1.74,1.83,30.77,30.77,0,0,0-1.74,2.64l-2.41,4a.51.51,0,0,0,.43.76.52.52,0,0,0,.43-.24l2.41-4a30.18,30.18,0,0,1,1.67-2.55A12.85,12.85,0,0,1,62,33.92c0,.12,0,.23,0,.35a4.35,4.35,0,0,1-.1,1.32,4.52,4.52,0,0,1-.64,1.17A6.27,6.27,0,0,0,60.6,38a6.43,6.43,0,0,0-.32,1.58,6,6,0,0,1-.14,1c-.07.34-.15.68-.22,1-.39,1.8-.79,3.66-2,4.8a4.82,4.82,0,0,1-.4-.57c-.12-.22-.22-.44-.32-.67a7.75,7.75,0,0,0-.58-1.1,7.38,7.38,0,0,0-2.65-2.1c-.47-.27-.92-.53-1.33-.82a9.35,9.35,0,0,1-.75-.64,3.22,3.22,0,0,1,.92-2.31,5.15,5.15,0,0,0,1.56-3.86,15.79,15.79,0,0,0-.58-3.83l.18,0a9.3,9.3,0,0,0,1-.22c1.63-.52,2.6-1.91,3.55-3.25a14.17,14.17,0,0,1,1.42-1.81A34.61,34.61,0,0,1,65.09,21l.09-.06Z"></path><path d="M55.8,52.48A9.22,9.22,0,0,1,52.71,50l-.22-.28a5.61,5.61,0,0,0-.87-1,6.84,6.84,0,0,0-.83-.57,6.92,6.92,0,0,1-.72-.48,5.81,5.81,0,0,1-.65-.73l-.25-.3a8.58,8.58,0,0,0-4.29-2.74.41.41,0,0,0-.11,0,.51.51,0,0,0-.3,0A3.19,3.19,0,0,0,43,45.34a4.87,4.87,0,0,1-.32.47,3.37,3.37,0,0,1-1.16,1,.51.51,0,0,0-.21.68.51.51,0,0,0,.45.27.46.46,0,0,0,.23-.06,4.51,4.51,0,0,0,1.5-1.28c.12-.17.24-.35.35-.53a4.82,4.82,0,0,1,.54-.72c.31.39.62.8.92,1.22l-3.27,2.77a.5.5,0,0,0,.32.88.52.52,0,0,0,.33-.12l3.18-2.7a11.47,11.47,0,0,1,.65,1.19l-2.11,1.33a.49.49,0,0,0-.16.69.51.51,0,0,0,.42.23.5.5,0,0,0,.27-.07l1.95-1.23c.06.2.12.4.17.61l.05.29c0,.18.08.37.13.55l-.76.56a.5.5,0,0,0-.11.7.51.51,0,0,0,.4.2.53.53,0,0,0,.3-.09l.57-.43c.14.23.3.45.45.65a7.33,7.33,0,0,1,.5.73A8.16,8.16,0,0,1,49,54a4.4,4.4,0,0,0,.87,1.6,4.93,4.93,0,0,0,.93.7c.54.34.87.58.92.93a.5.5,0,0,0,.49.44h.07a.49.49,0,0,0,.43-.56,2.42,2.42,0,0,0-1.38-1.65,4.07,4.07,0,0,1-.74-.55,3.4,3.4,0,0,1-.65-1.24,5.45,5.45,0,0,0-1-1.82,4.42,4.42,0,0,1-.61-1,4.12,4.12,0,0,1-.18-.75l-.07-.31a11.45,11.45,0,0,0-2.25-4.42,7.42,7.42,0,0,1,2.6,2l.24.29a5.61,5.61,0,0,0,.78.85,5.89,5.89,0,0,0,.85.59,4.74,4.74,0,0,1,.7.47,4.93,4.93,0,0,1,.73.83l.23.29a10.4,10.4,0,0,0,3.42,2.76.59.59,0,0,0,.22,0,.5.5,0,0,0,.23-1Z"></path></g></g><g fill="#ffffff" transform="matrix(0.7516148836170182,0,0,0.7516148836170182,119.70653900167719,13.351491950268361)" id="SvgjsG1008"><path d="M5.8984 18.73 c-1.4063 0 -2.4674 0.60547 -3.1836 1.8164 c-0.32553 -0.57291 -0.48828 -1.1784 -0.48828 -1.8164 l0 -0.13672 l0.019531 -0.13672 c0.52084 -0.44271 1.1198 -0.66406 1.7969 -0.66406 l2.7734 0 l0 0.9375 l-0.91797 0 z M10.449 40.23438 c0.40365 0.3125 0.86588 0.54689 1.3867 0.70314 l0 0.35156 c-0.67709 0.53385 -1.4388 0.80078 -2.2852 0.80078 c-0.66406 0 -1.276 -0.16275 -1.8359 -0.48828 c0.23438 -0.13021 0.45572 -0.29949 0.66406 -0.50783 c0.75521 -0.11719 1.4453 -0.40365 2.0703 -0.85938 z M20.664 14.453 c0.35156 -0.54688 0.57943 -1.1393 0.68359 -1.7773 c0.19531 -0.22135 0.35807 -0.4427 0.48828 -0.66404 c0.33854 0.57291 0.50781 1.1849 0.50781 1.8359 c-0.013027 0.71615 -0.21484 1.3802 -0.60547 1.9922 l-0.48828 0 c-0.11719 -0.50781 -0.3125 -0.97006 -0.58594 -1.3867 z M15.605 40.42971 c0.32553 0.49479 0.73566 0.88541 1.2304 1.1719 c-0.5599 0.32553 -1.1654 0.48828 -1.8164 0.48828 c-0.85938 0 -1.6211 -0.26693 -2.2852 -0.80078 l0 -0.17578 l0.21484 0.019531 l0.23438 0.019531 c0.80729 0 1.5625 -0.20182 2.2656 -0.60547 c0.05209 -0.026035 0.10418 -0.065098 0.15627 -0.11719 z M21.738 16.738 c0.39063 0.59896 0.58594 1.237 0.58594 1.9141 l0 0.058594 c0 0.65104 -0.16275 1.263 -0.48828 1.8359 c-0.28646 -0.49479 -0.67709 -0.90494 -1.1719 -1.2305 c0.05209 -0.05209 0.091152 -0.10418 0.11719 -0.15627 c0.40365 -0.70313 0.60547 -1.4648 0.60547 -2.2852 l0 -0.13672 l0.35156 0 z M16.836 17.793 c0.83334 0 1.5234 0.319 2.0703 0.95703 l-0.11719 -0.019531 l-3.7695 0 l0 6.0742 l0.019531 0.11719 c-0.63803 -0.54688 -0.95703 -1.237 -0.95703 -2.0703 l0 -5.0586 l2.7539 0 z M15.605 26.68 c0.32553 0.49479 0.73566 0.88543 1.2304 1.1719 c-1.2109 0.70313 -1.8164 1.7578 -1.8164 3.1641 l0 7.5391 l0.019531 0.11719 c-0.63803 -0.54688 -0.95703 -1.237 -0.95703 -2.0703 l0 -7.4219 c0 -1.0677 0.45572 -1.862 1.3672 -2.3828 c0.05209 -0.026035 0.10418 -0.065098 0.15627 -0.11719 z M10.898 14.902000000000001 l8.9844 0.000019073 c0.40365 0.61197 0.60547 1.2695 0.60547 1.9727 c0 0.65104 -0.16275 1.263 -0.48828 1.8359 c-0.70313 -1.2109 -1.7578 -1.8164 -3.1641 -1.8164 l-3.6523 0 l0 5.957 c0 1.4063 0.60547 2.4609 1.8164 3.1641 c-1.2109 0.70313 -1.8164 1.7578 -1.8164 3.1641 l0 7.4219 c0 1.4063 0.60547 2.4609 1.8164 3.1641 c-0.5599 0.32553 -1.1654 0.48828 -1.8164 0.48828 c-0.85938 0 -1.6211 -0.26693 -2.2852 -0.80078 l0 -24.551 z M0.87883 18.711 c-0.32553 -0.57291 -0.48828 -1.1784 -0.48828 -1.8164 c0 -0.71615 0.20182 -1.3802 0.60547 -1.9922 l9.0039 0 l0 24.551 c-0.67709 0.53385 -1.4453 0.80078 -2.3047 0.80078 c-0.65104 0 -1.2565 -0.16275 -1.8164 -0.48828 c1.2109 -0.70313 1.8229 -1.7578 1.8359 -3.1641 l0 -7.4414 c-0.013027 -1.3932 -0.625 -2.4414 -1.8359 -3.1445 c1.2109 -0.70313 1.8229 -1.7513 1.8359 -3.1445 l0 -5.9766 l-3.6719 0 c-1.3932 0 -2.4479 0.60547 -3.1641 1.8164 z M16.836 12.012 c1.4063 0 2.4609 -0.61197 3.1641 -1.8359 c0.32553 0.57291 0.48828 1.1849 0.48828 1.8359 c0 0.71615 -0.20182 1.3802 -0.60547 1.9922 l-18.887 0 c-0.40365 -0.61197 -0.60547 -1.276 -0.60547 -1.9922 c0 -0.65104 0.16275 -1.263 0.48828 -1.8359 c0.71615 1.224 1.7708 1.8359 3.1641 1.8359 l12.793 0 z M45.918375 20.566 c0 -1.0026 -0.13021 -1.9662 -0.39063 -2.8906 c0.88541 1.3932 1.3281 2.9688 1.3281 4.7266 c0 1.8229 -0.50131 3.3984 -1.5039 4.7266 c-0.88541 1.1719 -2.0508 2.0313 -3.4961 2.5781 l-0.70313 -1.3477 c1.5104 -0.72916 2.6822 -1.7708 3.5156 -3.125 c0.83334 -1.3672 1.25 -2.9232 1.25 -4.668 z M47.773375 40.48824 c0.46875 0.46875 0.91799 0.83334 1.3477 1.0938 c-0.59896 0.32553 -1.2175 0.48828 -1.8555 0.48828 c-0.74219 0 -1.4388 -0.18229 -2.0898 -0.54688 l-0.19531 -0.42969 l0.21484 0.019531 l0.23438 0.019531 c0.79428 0 1.556 -0.20182 2.2852 -0.60547 l0.039063 -0.019531 z M34.257374999999996 30.664099999999998 l-1.9922 0 l0 7.8711 l0.019531 0.11719 c-0.63803 -0.54688 -0.95703 -1.237 -0.95703 -2.0703 l0 -6.8555 l2.4609 0 z M35.586375000000004 17.773 c1.0547 0 1.862 0.32553 2.4219 0.97656 c-0.20834 -0.026035 -0.40365 -0.039063 -0.58594 -0.039063 l-5.1563 0 l0 4.6484 l-0.9375 0 l0 -5.5859 l4.2578 0 z M27.695275 40.2148 c0.41666 0.3125 0.87889 0.54688 1.3867 0.70313 l0 0.35156 c-0.67709 0.53385 -1.4388 0.80078 -2.2852 0.80078 c-0.65104 0 -1.263 -0.16275 -1.8359 -0.48828 c0.23438 -0.14322 0.46225 -0.3125 0.68359 -0.50781 c0.75521 -0.11719 1.4388 -0.40365 2.0508 -0.85938 z M42.910375 40.46871 c0.26041 0.14322 0.57291 0.27342 0.9375 0.39061 l0.15625 0.33203 c-0.61197 0.58594 -1.3477 0.87891 -2.207 0.87891 c-0.65104 0 -1.25 -0.16275 -1.7969 -0.48828 c0.23438 -0.14322 0.41016 -0.3125 0.52734 -0.50781 c0.79428 -0.10416 1.4844 -0.40363 2.0703 -0.89842 c0.078125 0.11719 0.18229 0.21484 0.3125 0.29297 z M32.851375000000004 40.39057 c0.32553 0.50781 0.73564 0.90492 1.2304 1.1914 c-0.57291 0.32553 -1.1784 0.48828 -1.8164 0.48828 c-0.85938 0 -1.6211 -0.26693 -2.2852 -0.80078 l0 -0.17578 l0.21484 0.019531 l0.23438 0.019531 c0.79428 0 1.5495 -0.20182 2.2656 -0.60547 c0.05209 -0.026035 0.10418 -0.071602 0.15627 -0.1367 z M44.394375 36.5625 c0.74219 1.4063 1.7057 2.4674 2.8906 3.1836 c-0.59896 0.32553 -1.2175 0.48828 -1.8555 0.48828 c-0.74219 0 -1.4388 -0.18229 -2.0898 -0.54688 l-6.4063 -12.734 c1.7708 -0.23438 3.19 -0.91146 4.2578 -2.0313 c1.0547 -1.1328 1.582 -2.5521 1.582 -4.2578 c0 -2.1484 -0.76172 -3.8346 -2.2852 -5.0586 c-1.3412 -1.0807 -2.9623 -1.6211 -4.8633 -1.6211 l-8.3789 0 l0 25.449 c-0.67709 0.53385 -1.4388 0.80078 -2.2852 0.80078 c-0.65104 0 -1.263 -0.16275 -1.8359 -0.48828 c1.224 -0.71615 1.8359 -1.7708 1.8359 -3.1641 l0 -7.4609 c-0.013027 -1.3802 -0.625 -2.4219 -1.8359 -3.125 c1.2109 -0.70313 1.8229 -1.7513 1.8359 -3.1445 l0 -7.2461 c-0.013027 -1.3802 -0.625 -2.4219 -1.8359 -3.125 c0.57291 -0.32553 1.1849 -0.48828 1.8359 -0.48828 l10.977 0 c2.7604 0 4.9869 0.83984 6.6797 2.5195 c1.6016 1.6016 2.4023 3.6197 2.4023 6.0547 c0 1.849 -0.51432 3.4439 -1.543 4.7852 c-0.89844 1.1719 -2.0898 2.0248 -3.5742 2.5586 z M35.664375 27.051000000000002 l0.13672 -0.019531 l0.15625 0 l6.2109 12.324 c-0.61197 0.58594 -1.3477 0.87891 -2.207 0.87891 c-0.65104 0 -1.2565 -0.16275 -1.8164 -0.48828 c0.46875 -0.27344 0.70313 -0.65104 0.70313 -1.1328 l0 -0.15625 c-0.039063 -0.40365 -0.26693 -1.0352 -0.68359 -1.8945 l-3.8086 -7.7344 l-3.9258 0 l0 7.7539 c0 1.3932 0.60547 2.4479 1.8164 3.1641 c-0.57291 0.32553 -1.1784 0.48828 -1.8164 0.48828 c-0.85938 0 -1.6211 -0.26693 -2.2852 -0.80078 l0 -12.383 l7.5195 0 z M35.586375000000004 24.258 c1.1849 0 2.1484 -0.34508 2.8906 -1.0352 c0.71615 -0.6901 1.0742 -1.5755 1.0742 -2.6563 c0 -1.0938 -0.35807 -1.9791 -1.0742 -2.6563 c-0.74219 -0.6901 -1.7057 -1.0352 -2.8906 -1.0352 l-5.1563 0 l0 7.3828 l5.1563 0 z M36.386375 26.113 c-0.27344 0.026035 -0.51432 0.039043 -0.72266 0.039043 l-7.5195 0 l0 -11.27 l7.4805 0 c0.61197 0 1.2435 0.084629 1.8945 0.25391 c0.75521 0.20834 1.4323 0.51434 2.0313 0.91799 c1.5495 1.0417 2.3242 2.5781 2.3242 4.6094 c0 1.6927 -0.56641 3.0209 -1.6992 3.9844 c-0.95053 0.82031 -2.1811 1.3021 -3.6914 1.4453 z M63.10571875 22.988 l0.74219 2.2266 l-1.4844 4.2773 l-1.5234 0 z M69.33571875 14.043 c-0.57291 0.32553 -0.98959 0.78125 -1.25 1.3672 c-0.14322 0.32553 -0.21484 0.65756 -0.21484 0.99609 c0 0.28646 0.05209 0.57943 0.15625 0.87891 c-0.49479 -1.3672 -0.76822 -2.1094 -0.82031 -2.2266 c-0.078125 -0.23438 -0.11719 -0.45572 -0.11719 -0.66406 c0 -0.29947 0.078125 -0.57291 0.23438 -0.82031 l0.097656 -0.019531 l0.078125 0 c0.66406 0 1.276 0.16275 1.8359 0.48828 z M67.34371875 35.8984 c0.11719 0.32553 0.22785 0.63799 0.33201 0.93746 l-7.793 0 c0 0.013027 -0.026035 0.091152 -0.078125 0.23438 l-0.019531 0.097656 l-0.039063 0.11719 l-0.097656 0.25391 c-0.14322 0.49479 -0.24738 0.82031 -0.31248 0.97656 l-0.078125 0.25391 c-0.45572 -0.32553 -0.78125 -0.74219 -0.97656 -1.25 c-0.013027 -0.026035 -0.019531 -0.065098 -0.019531 -0.11719 c0 -0.10416 0.032559 -0.24738 0.097656 -0.42967 c0.026035 -0.10416 0.078125 -0.26041 0.15625 -0.46875 c0.05209 -0.18229 0.11068 -0.3841 0.17578 -0.60545 l8.6523 0 z M74.02371875 27.793 c-0.42969 0.50781 -0.72266 1.0873 -0.87891 1.7383 c-0.078125 0.29947 -0.11719 0.59895 -0.11719 0.89842 c0 0.36459 0.065098 0.72266 0.19531 1.0742 l-0.83984 -2.2656 c-0.11719 -0.3125 -0.17578 -0.625 -0.17578 -0.9375 c0 -0.39063 0.091152 -0.78125 0.27344 -1.1719 c0.48178 0.35156 0.99609 0.57291 1.543 0.66406 z M73.00771875 40.93748 l0.058594 0.21484 c-0.67709 0.58594 -1.4648 0.87891 -2.3633 0.87891 c-0.65104 0 -1.263 -0.16275 -1.8359 -0.48828 c0.20834 -0.11719 0.42969 -0.28646 0.66406 -0.50781 c0.76822 -0.11719 1.4583 -0.41016 2.0703 -0.87891 l0.13672 0.11719 c0.39063 0.27344 0.80729 0.47525 1.25 0.60547 z M76.79671875 40.35154 c0.32553 0.52084 0.72918 0.91797 1.211 1.1914 c-0.57291 0.32553 -1.1849 0.48828 -1.8359 0.48828 c-0.75521 0 -1.4518 -0.22135 -2.0898 -0.66406 l-0.097656 -0.29297 l0.17578 0 l0.17578 0.019531 c0.80729 0 1.5625 -0.20182 2.2656 -0.60547 c0.065098 -0.039063 0.1302 -0.084629 0.19529 -0.13672 z M59.628718750000004 40.35154 c0.33854 0.50781 0.74867 0.90494 1.2304 1.1914 c-0.5599 0.32553 -1.1654 0.48828 -1.8164 0.48828 c-0.89844 0 -1.6927 -0.29947 -2.3828 -0.89844 l0.039063 -0.078125 l0.25391 0.019531 l0.25391 0.019531 c0.82031 0 1.5755 -0.20182 2.2656 -0.60547 c0.05209 -0.039063 0.10418 -0.084629 0.15627 -0.13672 z M54.45311875 40.15623 c0.40365 0.3125 0.85285 0.54689 1.3476 0.70314 l-0.17578 0.52734 c-0.61197 0.42969 -1.2956 0.64453 -2.0508 0.64453 c-0.65104 0 -1.263 -0.16275 -1.8359 -0.48828 c0.20834 -0.11719 0.42318 -0.28646 0.64453 -0.50781 c0.70313 -0.091152 1.3412 -0.33855 1.9141 -0.74221 c0.065098 -0.039063 0.11719 -0.084629 0.15625 -0.13672 z M72.40271874999999 31.875 c0.091152 0.26041 0.22139 0.62498 0.39066 1.0937 l0.19531 0.54688 l0.19531 0.50781 c0.58594 1.6276 1.0287 2.8451 1.3281 3.6523 c0.33854 0.91146 0.89191 1.5886 1.6601 2.0313 c-0.57291 0.32553 -1.1849 0.48828 -1.8359 0.48828 c-0.75521 0 -1.4518 -0.22135 -2.0898 -0.66406 l-2.4219 -7.2461 l-6.5234 -19.688 c0.6901 -0.58594 1.4779 -0.87891 2.3633 -0.87891 c0.66406 0 1.276 0.16275 1.8359 0.48828 c-0.5599 0.32553 -0.94402 0.76824 -1.1524 1.3281 c-0.10416 0.27344 -0.15625 0.5599 -0.15625 0.85938 c0 0.3125 0.058594 0.63803 0.17578 0.97656 c0.026035 0.05209 0.11719 0.306 0.27344 0.76172 c0.19531 0.52084 0.42318 1.1328 0.68359 1.8359 c0.70313 1.9271 1.3867 3.8086 2.0508 5.6445 c0.48178 1.3151 1.4193 2.0963 2.8125 2.3438 c-0.59896 0.70313 -0.89844 1.4583 -0.89844 2.2656 c0 0.42969 0.084629 0.8724 0.25391 1.3281 c0.2474 0.66406 0.53387 1.4388 0.85939 2.3242 z M69.17971875 33.1445 l1.9922 5.957 l0.058594 0.21484 c-0.67709 0.58594 -1.4648 0.87891 -2.3633 0.87891 c-0.65104 0 -1.263 -0.16275 -1.8359 -0.48828 c0.75521 -0.44271 1.2891 -1.0677 1.6016 -1.875 c0.039063 -0.11719 0.058594 -0.2474 0.058594 -0.39063 c0 -0.22135 -0.045566 -0.47525 -0.13672 -0.76172 c-0.05209 -0.16928 -0.15625 -0.4948 -0.3125 -0.97658 l-0.097656 -0.25391 c-0.026035 -0.065098 -0.05207 -0.13672 -0.078105 -0.21484 c-0.039063 -0.14322 -0.065098 -0.22135 -0.078125 -0.23438 l-9.9414 0 c0 0.013027 -0.026035 0.091152 -0.078125 0.23438 l-0.039063 0.097656 l-0.019531 0.11719 l-0.097656 0.25391 c-0.14322 0.49479 -0.24738 0.82031 -0.31248 0.97656 c-0.091152 0.27344 -0.13672 0.51432 -0.13672 0.72266 c0 0.15625 0.026035 0.29947 0.078125 0.42969 c0.29947 0.80729 0.82682 1.4323 1.582 1.875 c-0.5599 0.32553 -1.1654 0.48828 -1.8164 0.48828 c-0.89844 0 -1.6927 -0.29947 -2.3828 -0.89844 l2.0313 -6.1523 l12.324 0 z M63.12471875 20.215 l-3.5547 10.176 l6.9727 0 z M68.88671875 32.2461 l-11.738 0 l5.8789 -17.637 z M56.19121875 32.2461 l-2.4023 7.3047 c-0.61197 0.42969 -1.2956 0.64453 -2.0508 0.64453 c-0.65104 0 -1.263 -0.16275 -1.8359 -0.48828 c0.76822 -0.44271 1.3151 -1.1198 1.6406 -2.0313 c0.27344 -0.72916 0.71615 -1.9466 1.3281 -3.6523 l0.19531 -0.52734 l0.19531 -0.52734 c0.14322 -0.40365 0.27344 -0.76824 0.39063 -1.0938 c0.29947 -0.84635 0.57941 -1.6211 0.83982 -2.3242 c0.16928 -0.45572 0.25391 -0.89844 0.25391 -1.3281 c0 -0.80729 -0.29297 -1.5625 -0.87891 -2.2656 c1.3802 -0.2474 2.3111 -1.0287 2.793 -2.3438 c0.6901 -1.875 1.3737 -3.7564 2.0508 -5.6445 c0.59896 -1.6276 0.91797 -2.4936 0.95703 -2.5977 c0.11719 -0.33854 0.17578 -0.66406 0.17578 -0.97656 c0 -0.29947 -0.05209 -0.58594 -0.15625 -0.85938 c-0.20834 -0.5599 -0.59246 -1.0026 -1.1524 -1.3281 c0.57291 -0.32553 1.1849 -0.48828 1.8359 -0.48828 c0.89844 0 1.6927 0.29297 2.3828 0.87891 z M98.9644375 37.5195 c0.35156 -0.53385 0.57289 -1.1198 0.66404 -1.7578 c0.20834 -0.22135 0.37762 -0.4427 0.50783 -0.66404 c0.32553 0.5599 0.48828 1.1654 0.48828 1.8164 c0 0.72916 -0.19531 1.3932 -0.58594 1.9922 l-0.48828 0 c-0.11719 -0.50781 -0.3125 -0.97006 -0.58594 -1.3867 z M86.9922375 29.121000000000002 c0 -1.0547 0.4557 -1.849 1.3672 -2.3828 c0.05209 -0.026035 0.10418 -0.065098 0.15627 -0.11719 c0.32553 0.49479 0.73568 0.88541 1.2305 1.1719 c-1.2109 0.71615 -1.8164 1.7708 -1.8164 3.1641 l0 3.2227 l-0.9375 0 l0 -5.0586 z M100.03943749999999 39.80467 c0.39063 0.61197 0.58594 1.276 0.58594 1.9922 c0 0.66406 -0.16275 1.276 -0.48828 1.8359 c-0.28646 -0.49479 -0.67709 -0.90494 -1.1719 -1.2305 l0.11719 -0.15625 c0.40365 -0.70313 0.60547 -1.4648 0.60547 -2.2852 l0 -0.15625 l0.35156 0 z M87.6562375 13.574000000000002 l0.13674 0.000019073 l0.13672 -0.019531 c0.65104 0 1.263 0.16275 1.8359 0.48828 c-1.224 0.70313 -1.8359 1.7578 -1.8359 3.1641 l0 7.6563 c-0.625 -0.54688 -0.9375 -1.237 -0.9375 -2.0703 l0 -7.4219 c0 -0.67709 0.22135 -1.2761 0.66406 -1.7969 z M95.1364375 40.85938 c0.83334 0 1.5234 0.319 2.0703 0.95703 l-0.11719 -0.019531 l-14.629 0 c-0.65104 0 -1.263 -0.16275 -1.8359 -0.48828 c0.19531 -0.11719 0.39713 -0.26693 0.60547 -0.44922 l13.906 0 z M98.2034375 37.9687 c0.39063 0.61197 0.58592 1.276 0.58592 1.9922 c0 0.66406 -0.16275 1.276 -0.48828 1.8359 c-0.70313 -1.224 -1.7578 -1.8359 -3.1641 -1.8359 l-14.512 0 c-0.65104 0 -1.263 -0.16275 -1.8359 -0.48828 c1.2109 -0.70313 1.8229 -1.7578 1.8359 -3.1641 l0 -7.1875 c0 -1.3932 -0.61197 -2.4479 -1.8359 -3.1641 c1.224 -0.70313 1.8359 -1.7578 1.8359 -3.1641 l0 -7.4219 c0 -1.4063 -0.61197 -2.4609 -1.8359 -3.1641 c0.5599 -0.32553 1.1719 -0.48828 1.8359 -0.48828 c0.84635 0 1.6081 0.27344 2.2852 0.82031 l0 25.43 l15.293 0 z M95.1364375 35.0781 c1.4063 0 2.4609 -0.60547 3.1641 -1.8164 c0.32553 0.5599 0.48828 1.1654 0.48828 1.8164 c0 0.72916 -0.19531 1.3932 -0.58594 1.9922 l-14.395 0 l0 -24.531 c0.67709 -0.54688 1.4388 -0.82031 2.2852 -0.82031 c0.65104 0 1.2565 0.16275 1.8164 0.48828 c-1.2109 0.70313 -1.8164 1.7578 -1.8164 3.1641 l0 7.4219 c0 1.4063 0.60547 2.4609 1.8164 3.1641 c-1.2109 0.71615 -1.8164 1.7708 -1.8164 3.1641 l0 5.957 l9.043 0 z M121.581625 37.5195 c0.35156 -0.53385 0.57289 -1.1198 0.66404 -1.7578 c0.20834 -0.22135 0.37762 -0.4427 0.50783 -0.66404 c0.32553 0.5599 0.48828 1.1654 0.48828 1.8164 c0 0.72916 -0.19531 1.3932 -0.58594 1.9922 l-0.48828 0 c-0.11719 -0.50781 -0.3125 -0.97006 -0.58594 -1.3867 z M109.609425 29.121000000000002 c0 -1.0547 0.4557 -1.849 1.3672 -2.3828 c0.05209 -0.026035 0.10418 -0.065098 0.15627 -0.11719 c0.32553 0.49479 0.73568 0.88541 1.2305 1.1719 c-1.2109 0.71615 -1.8164 1.7708 -1.8164 3.1641 l0 3.2227 l-0.9375 0 l0 -5.0586 z M122.65662499999999 39.80467 c0.39063 0.61197 0.58594 1.276 0.58594 1.9922 c0 0.66406 -0.16275 1.276 -0.48828 1.8359 c-0.28646 -0.49479 -0.67709 -0.90494 -1.1719 -1.2305 l0.11719 -0.15625 c0.40365 -0.70313 0.60547 -1.4648 0.60547 -2.2852 l0 -0.15625 l0.35156 0 z M110.273425 13.574000000000002 l0.13674 0.000019073 l0.13672 -0.019531 c0.65104 0 1.263 0.16275 1.8359 0.48828 c-1.224 0.70313 -1.8359 1.7578 -1.8359 3.1641 l0 7.6563 c-0.625 -0.54688 -0.9375 -1.237 -0.9375 -2.0703 l0 -7.4219 c0 -0.67709 0.22135 -1.2761 0.66406 -1.7969 z M117.753625 40.85938 c0.83334 0 1.5234 0.319 2.0703 0.95703 l-0.11719 -0.019531 l-14.629 0 c-0.65104 0 -1.263 -0.16275 -1.8359 -0.48828 c0.19531 -0.11719 0.39713 -0.26693 0.60547 -0.44922 l13.906 0 z M120.820625 37.9687 c0.39063 0.61197 0.58592 1.276 0.58592 1.9922 c0 0.66406 -0.16275 1.276 -0.48828 1.8359 c-0.70313 -1.224 -1.7578 -1.8359 -3.1641 -1.8359 l-14.512 0 c-0.65104 0 -1.263 -0.16275 -1.8359 -0.48828 c1.2109 -0.70313 1.8229 -1.7578 1.8359 -3.1641 l0 -7.1875 c0 -1.3932 -0.61197 -2.4479 -1.8359 -3.1641 c1.224 -0.70313 1.8359 -1.7578 1.8359 -3.1641 l0 -7.4219 c0 -1.4063 -0.61197 -2.4609 -1.8359 -3.1641 c0.5599 -0.32553 1.1719 -0.48828 1.8359 -0.48828 c0.84635 0 1.6081 0.27344 2.2852 0.82031 l0 25.43 l15.293 0 z M117.753625 35.0781 c1.4063 0 2.4609 -0.60547 3.1641 -1.8164 c0.32553 0.5599 0.48828 1.1654 0.48828 1.8164 c0 0.72916 -0.19531 1.3932 -0.58594 1.9922 l-14.395 0 l0 -24.531 c0.67709 -0.54688 1.4388 -0.82031 2.2852 -0.82031 c0.65104 0 1.2565 0.16275 1.8164 0.48828 c-1.2109 0.70313 -1.8164 1.7578 -1.8164 3.1641 l0 7.4219 c0 1.4063 0.60547 2.4609 1.8164 3.1641 c-1.2109 0.71615 -1.8164 1.7708 -1.8164 3.1641 l0 5.957 l9.043 0 z M129.06284375 14.043 c-0.3125 0.15625 -0.53385 0.41014 -0.66406 0.7617 c-0.065098 0.20834 -0.097656 0.45574 -0.097656 0.74221 l0 0.25391 c0.039063 0.44271 0.13672 0.85938 0.29297 1.25 l-1.0156 -2.207 c-0.26041 -0.58594 -0.39063 -1.0156 -0.39063 -1.2891 l0.058594 0 c0.65104 0 1.2565 0.16275 1.8164 0.48828 z M130.33184375 40.17576 c0.41666 0.3125 0.87891 0.54689 1.3867 0.70314 l0 0.35156 c-0.66406 0.53385 -1.4258 0.80078 -2.2852 0.80078 c-0.65104 0 -1.2565 -0.16275 -1.8164 -0.48828 c0.23438 -0.13021 0.45572 -0.29949 0.66406 -0.50783 c0.76822 -0.11719 1.4518 -0.40365 2.0508 -0.85938 z M142.57784375 13.555 c0.66406 0 1.2761 0.16271 1.836 0.48824 c-0.9375 0.35156 -1.7383 1.0287 -2.4023 2.0313 l-4.6289 9.3359 c-0.42969 0.84635 -0.64453 1.5299 -0.64453 2.0508 l0 0.039063 c0 0.52084 0.22135 0.98959 0.66406 1.4063 c-0.70313 0.10416 -1.3021 0.41666 -1.7969 0.9375 c-0.48178 0.50781 -0.72266 1.0807 -0.72266 1.7188 l0 6.9141 l0.019531 0.11719 c-0.63803 -0.5599 -0.95703 -1.2435 -0.95703 -2.0508 l0 -6.8359 c0 -0.40365 0.16928 -0.78125 0.50781 -1.1328 c0.35156 -0.33854 0.76172 -0.54035 1.2305 -0.60545 c0.3776 -0.05209 0.625 -0.26043 0.74219 -0.62502 c0.039063 -0.10416 0.058594 -0.20832 0.058594 -0.31248 c0 -0.22135 -0.097656 -0.42316 -0.29297 -0.60545 c-0.26041 -0.2474 -0.39063 -0.50781 -0.39063 -0.78125 l0 -0.039063 c0 -0.3776 0.18229 -0.92447 0.54688 -1.6406 l4.6094 -9.2773 c0.29947 -0.45572 0.59895 -0.80729 0.89842 -1.0547 c0.27344 -0.05209 0.51432 -0.078125 0.72266 -0.078125 z M135.50784375 40.37105 c0.32553 0.49479 0.73568 0.88541 1.2305 1.1719 c-0.57291 0.32553 -1.1784 0.48828 -1.8164 0.48828 c-0.85938 0 -1.6276 -0.26693 -2.3047 -0.80078 l0 -0.17578 l0.23438 0.019531 l0.21484 0.019531 c0.80729 0 1.569 -0.20182 2.2852 -0.60547 z M118.10548375 12.207 c0.5599 -0.32553 1.1719 -0.48828 1.8359 -0.48828 c0.72916 0 1.4258 0.18229 2.0898 0.54688 l7.8516 16.035 l0 11.094 c-0.66406 0.53385 -1.4258 0.80078 -2.2852 0.80078 c-0.65104 0 -1.2565 -0.16275 -1.8164 -0.48828 c1.224 -0.71615 1.8359 -1.7708 1.8359 -3.1641 l0 -6.8164 c0 -0.63803 -0.24088 -1.2109 -0.72266 -1.7188 c-0.49479 -0.52084 -1.1003 -0.83334 -1.8164 -0.9375 c0.45572 -0.42969 0.6901 -0.91146 0.70313 -1.4453 c0 -0.53385 -0.22135 -1.2174 -0.66406 -2.0508 l-4.6094 -9.3359 c-0.66406 -1.0026 -1.4648 -1.6797 -2.4023 -2.0313 z M133.45684375 12.207 c0.5599 -0.32553 1.1653 -0.48828 1.8164 -0.48828 c0.83334 0 1.569 0.306 2.207 0.91797 l-7.1289 14.551 l-7.1484 -14.57 c0.63803 -0.59896 1.3737 -0.89844 2.207 -0.89844 c0.65104 0 1.2565 0.16275 1.8164 0.48828 c-0.625 0.29947 -0.9375 0.7552 -0.9375 1.3672 c0 0.40365 0.15625 0.95053 0.46875 1.6406 l3.6133 8.0273 l3.5547 -8.0273 c0.3125 -0.6901 0.46875 -1.237 0.46875 -1.6406 c0 -0.61197 -0.3125 -1.0677 -0.9375 -1.3672 z M138.67184375 12.265999999999998 c0.66406 -0.36459 1.3541 -0.54688 2.0703 -0.54688 c0.66406 0 1.276 0.16275 1.8359 0.48828 c-0.9375 0.35156 -1.7383 1.0287 -2.4023 2.0313 l-4.6289 9.3359 c-0.42969 0.83334 -0.65104 1.5169 -0.66406 2.0508 c0 0.53385 0.22787 1.0156 0.68359 1.4453 c-0.70313 0.10416 -1.3021 0.41666 -1.7969 0.9375 c-0.48178 0.50781 -0.72266 1.0807 -0.72266 1.7188 l0 6.8164 c0 1.3932 0.6185 2.4479 1.8555 3.1641 c-0.57291 0.32553 -1.1849 0.48828 -1.8359 0.48828 c-0.84635 0 -1.6081 -0.26693 -2.2852 -0.80078 l0 -11.094 z M167.9886875 20.566 c0 -1.0026 -0.13021 -1.9662 -0.39063 -2.8906 c0.88541 1.3932 1.3281 2.9688 1.3281 4.7266 c0 1.8229 -0.50131 3.3984 -1.5039 4.7266 c-0.88541 1.1719 -2.0508 2.0313 -3.4961 2.5781 l-0.70313 -1.3477 c1.5104 -0.72916 2.6822 -1.7708 3.5156 -3.125 c0.83334 -1.3672 1.25 -2.9232 1.25 -4.668 z M169.8436875 40.48824 c0.46875 0.46875 0.91799 0.83334 1.3477 1.0938 c-0.59896 0.32553 -1.2175 0.48828 -1.8555 0.48828 c-0.74219 0 -1.4388 -0.18229 -2.0898 -0.54688 l-0.19531 -0.42969 l0.21484 0.019531 l0.23438 0.019531 c0.79428 0 1.556 -0.20182 2.2852 -0.60547 l0.039063 -0.019531 z M156.3276875 30.664099999999998 l-1.9922 0 l0 7.8711 l0.019531 0.11719 c-0.63803 -0.54688 -0.95703 -1.237 -0.95703 -2.0703 l0 -6.8555 l2.4609 0 z M157.6566875 17.773 c1.0547 0 1.862 0.32553 2.4219 0.97656 c-0.20834 -0.026035 -0.40365 -0.039063 -0.58594 -0.039063 l-5.1563 0 l0 4.6484 l-0.9375 0 l0 -5.5859 l4.2578 0 z M149.7655875 40.2148 c0.41666 0.3125 0.87889 0.54688 1.3867 0.70313 l0 0.35156 c-0.67709 0.53385 -1.4388 0.80078 -2.2852 0.80078 c-0.65104 0 -1.263 -0.16275 -1.8359 -0.48828 c0.23438 -0.14322 0.46225 -0.3125 0.68359 -0.50781 c0.75521 -0.11719 1.4388 -0.40365 2.0508 -0.85938 z M164.9806875 40.46871 c0.26041 0.14322 0.57291 0.27342 0.9375 0.39061 l0.15625 0.33203 c-0.61197 0.58594 -1.3477 0.87891 -2.207 0.87891 c-0.65104 0 -1.25 -0.16275 -1.7969 -0.48828 c0.23438 -0.14322 0.41016 -0.3125 0.52734 -0.50781 c0.79428 -0.10416 1.4844 -0.40363 2.0703 -0.89842 c0.078125 0.11719 0.18229 0.21484 0.3125 0.29297 z M154.9216875 40.39057 c0.32553 0.50781 0.73564 0.90492 1.2304 1.1914 c-0.57291 0.32553 -1.1784 0.48828 -1.8164 0.48828 c-0.85938 0 -1.6211 -0.26693 -2.2852 -0.80078 l0 -0.17578 l0.21484 0.019531 l0.23438 0.019531 c0.79428 0 1.5495 -0.20182 2.2656 -0.60547 c0.05209 -0.026035 0.10418 -0.071602 0.15627 -0.1367 z M166.4646875 36.5625 c0.74219 1.4063 1.7057 2.4674 2.8906 3.1836 c-0.59896 0.32553 -1.2175 0.48828 -1.8555 0.48828 c-0.74219 0 -1.4388 -0.18229 -2.0898 -0.54688 l-6.4063 -12.734 c1.7708 -0.23438 3.19 -0.91146 4.2578 -2.0313 c1.0547 -1.1328 1.582 -2.5521 1.582 -4.2578 c0 -2.1484 -0.76172 -3.8346 -2.2852 -5.0586 c-1.3412 -1.0807 -2.9623 -1.6211 -4.8633 -1.6211 l-8.3789 0 l0 25.449 c-0.67709 0.53385 -1.4388 0.80078 -2.2852 0.80078 c-0.65104 0 -1.263 -0.16275 -1.8359 -0.48828 c1.224 -0.71615 1.8359 -1.7708 1.8359 -3.1641 l0 -7.4609 c-0.013027 -1.3802 -0.625 -2.4219 -1.8359 -3.125 c1.2109 -0.70313 1.8229 -1.7513 1.8359 -3.1445 l0 -7.2461 c-0.013027 -1.3802 -0.625 -2.4219 -1.8359 -3.125 c0.57291 -0.32553 1.1849 -0.48828 1.8359 -0.48828 l10.977 0 c2.7604 0 4.9869 0.83984 6.6797 2.5195 c1.6016 1.6016 2.4023 3.6197 2.4023 6.0547 c0 1.849 -0.51432 3.4439 -1.543 4.7852 c-0.89844 1.1719 -2.0898 2.0248 -3.5742 2.5586 z M157.7346875 27.051000000000002 l0.13672 -0.019531 l0.15625 0 l6.2109 12.324 c-0.61197 0.58594 -1.3477 0.87891 -2.207 0.87891 c-0.65104 0 -1.2565 -0.16275 -1.8164 -0.48828 c0.46875 -0.27344 0.70313 -0.65104 0.70313 -1.1328 l0 -0.15625 c-0.039063 -0.40365 -0.26693 -1.0352 -0.68359 -1.8945 l-3.8086 -7.7344 l-3.9258 0 l0 7.7539 c0 1.3932 0.60547 2.4479 1.8164 3.1641 c-0.57291 0.32553 -1.1784 0.48828 -1.8164 0.48828 c-0.85938 0 -1.6211 -0.26693 -2.2852 -0.80078 l0 -12.383 l7.5195 0 z M157.6566875 24.258 c1.1849 0 2.1484 -0.34508 2.8906 -1.0352 c0.71615 -0.6901 1.0742 -1.5755 1.0742 -2.6563 c0 -1.0938 -0.35807 -1.9791 -1.0742 -2.6563 c-0.74219 -0.6901 -1.7057 -1.0352 -2.8906 -1.0352 l-5.1563 0 l0 7.3828 l5.1563 0 z M158.4566875 26.113 c-0.27344 0.026035 -0.51432 0.039043 -0.72266 0.039043 l-7.5195 0 l0 -11.27 l7.4805 0 c0.61197 0 1.2435 0.084629 1.8945 0.25391 c0.75521 0.20834 1.4323 0.51434 2.0313 0.91799 c1.5495 1.0417 2.3242 2.5781 2.3242 4.6094 c0 1.6927 -0.56641 3.0209 -1.6992 3.9844 c-0.95053 0.82031 -2.1811 1.3021 -3.6914 1.4453 z M185.17603125 22.988 l0.74219 2.2266 l-1.4844 4.2773 l-1.5234 0 z M191.40603125 14.043 c-0.57291 0.32553 -0.98959 0.78125 -1.25 1.3672 c-0.14322 0.32553 -0.21484 0.65756 -0.21484 0.99609 c0 0.28646 0.05209 0.57943 0.15625 0.87891 c-0.49479 -1.3672 -0.76822 -2.1094 -0.82031 -2.2266 c-0.078125 -0.23438 -0.11719 -0.45572 -0.11719 -0.66406 c0 -0.29947 0.078125 -0.57291 0.23438 -0.82031 l0.097656 -0.019531 l0.078125 0 c0.66406 0 1.276 0.16275 1.8359 0.48828 z M189.41403125 35.8984 c0.11719 0.32553 0.22785 0.63799 0.33201 0.93746 l-7.793 0 c0 0.013027 -0.026035 0.091152 -0.078125 0.23438 l-0.019531 0.097656 l-0.039063 0.11719 l-0.097656 0.25391 c-0.14322 0.49479 -0.24738 0.82031 -0.31248 0.97656 l-0.078125 0.25391 c-0.45572 -0.32553 -0.78125 -0.74219 -0.97656 -1.25 c-0.013027 -0.026035 -0.019531 -0.065098 -0.019531 -0.11719 c0 -0.10416 0.032559 -0.24738 0.097656 -0.42967 c0.026035 -0.10416 0.078125 -0.26041 0.15625 -0.46875 c0.05209 -0.18229 0.11068 -0.3841 0.17578 -0.60545 l8.6523 0 z M196.09403125 27.793 c-0.42969 0.50781 -0.72266 1.0873 -0.87891 1.7383 c-0.078125 0.29947 -0.11719 0.59895 -0.11719 0.89842 c0 0.36459 0.065098 0.72266 0.19531 1.0742 l-0.83984 -2.2656 c-0.11719 -0.3125 -0.17578 -0.625 -0.17578 -0.9375 c0 -0.39063 0.091152 -0.78125 0.27344 -1.1719 c0.48178 0.35156 0.99609 0.57291 1.543 0.66406 z M195.07803125 40.93748 l0.058594 0.21484 c-0.67709 0.58594 -1.4648 0.87891 -2.3633 0.87891 c-0.65104 0 -1.263 -0.16275 -1.8359 -0.48828 c0.20834 -0.11719 0.42969 -0.28646 0.66406 -0.50781 c0.76822 -0.11719 1.4583 -0.41016 2.0703 -0.87891 l0.13672 0.11719 c0.39063 0.27344 0.80729 0.47525 1.25 0.60547 z M198.86703125 40.35154 c0.32553 0.52084 0.72918 0.91797 1.211 1.1914 c-0.57291 0.32553 -1.1849 0.48828 -1.8359 0.48828 c-0.75521 0 -1.4518 -0.22135 -2.0898 -0.66406 l-0.097656 -0.29297 l0.17578 0 l0.17578 0.019531 c0.80729 0 1.5625 -0.20182 2.2656 -0.60547 c0.065098 -0.039063 0.1302 -0.084629 0.19529 -0.13672 z M181.69903125 40.35154 c0.33854 0.50781 0.74867 0.90494 1.2304 1.1914 c-0.5599 0.32553 -1.1654 0.48828 -1.8164 0.48828 c-0.89844 0 -1.6927 -0.29947 -2.3828 -0.89844 l0.039063 -0.078125 l0.25391 0.019531 l0.25391 0.019531 c0.82031 0 1.5755 -0.20182 2.2656 -0.60547 c0.05209 -0.039063 0.10418 -0.084629 0.15627 -0.13672 z M176.52343125 40.15623 c0.40365 0.3125 0.85285 0.54689 1.3476 0.70314 l-0.17578 0.52734 c-0.61197 0.42969 -1.2956 0.64453 -2.0508 0.64453 c-0.65104 0 -1.263 -0.16275 -1.8359 -0.48828 c0.20834 -0.11719 0.42318 -0.28646 0.64453 -0.50781 c0.70313 -0.091152 1.3412 -0.33855 1.9141 -0.74221 c0.065098 -0.039063 0.11719 -0.084629 0.15625 -0.13672 z M194.47303125 31.875 c0.091152 0.26041 0.22139 0.62498 0.39066 1.0937 l0.19531 0.54688 l0.19531 0.50781 c0.58594 1.6276 1.0287 2.8451 1.3281 3.6523 c0.33854 0.91146 0.89191 1.5886 1.6601 2.0313 c-0.57291 0.32553 -1.1849 0.48828 -1.8359 0.48828 c-0.75521 0 -1.4518 -0.22135 -2.0898 -0.66406 l-2.4219 -7.2461 l-6.5234 -19.688 c0.6901 -0.58594 1.4779 -0.87891 2.3633 -0.87891 c0.66406 0 1.276 0.16275 1.8359 0.48828 c-0.5599 0.32553 -0.94402 0.76824 -1.1524 1.3281 c-0.10416 0.27344 -0.15625 0.5599 -0.15625 0.85938 c0 0.3125 0.058594 0.63803 0.17578 0.97656 c0.026035 0.05209 0.11719 0.306 0.27344 0.76172 c0.19531 0.52084 0.42318 1.1328 0.68359 1.8359 c0.70313 1.9271 1.3867 3.8086 2.0508 5.6445 c0.48178 1.3151 1.4193 2.0963 2.8125 2.3438 c-0.59896 0.70313 -0.89844 1.4583 -0.89844 2.2656 c0 0.42969 0.084629 0.8724 0.25391 1.3281 c0.2474 0.66406 0.53387 1.4388 0.85939 2.3242 z M191.25003125 33.1445 l1.9922 5.957 l0.058594 0.21484 c-0.67709 0.58594 -1.4648 0.87891 -2.3633 0.87891 c-0.65104 0 -1.263 -0.16275 -1.8359 -0.48828 c0.75521 -0.44271 1.2891 -1.0677 1.6016 -1.875 c0.039063 -0.11719 0.058594 -0.2474 0.058594 -0.39063 c0 -0.22135 -0.045566 -0.47525 -0.13672 -0.76172 c-0.05209 -0.16928 -0.15625 -0.4948 -0.3125 -0.97658 l-0.097656 -0.25391 c-0.026035 -0.065098 -0.05207 -0.13672 -0.078105 -0.21484 c-0.039063 -0.14322 -0.065098 -0.22135 -0.078125 -0.23438 l-9.9414 0 c0 0.013027 -0.026035 0.091152 -0.078125 0.23438 l-0.039063 0.097656 l-0.019531 0.11719 l-0.097656 0.25391 c-0.14322 0.49479 -0.24738 0.82031 -0.31248 0.97656 c-0.091152 0.27344 -0.13672 0.51432 -0.13672 0.72266 c0 0.15625 0.026035 0.29947 0.078125 0.42969 c0.29947 0.80729 0.82682 1.4323 1.582 1.875 c-0.5599 0.32553 -1.1654 0.48828 -1.8164 0.48828 c-0.89844 0 -1.6927 -0.29947 -2.3828 -0.89844 l2.0313 -6.1523 l12.324 0 z M185.19503125 20.215 l-3.5547 10.176 l6.9727 0 z M190.95703125 32.2461 l-11.738 0 l5.8789 -17.637 z M178.26153125 32.2461 l-2.4023 7.3047 c-0.61197 0.42969 -1.2956 0.64453 -2.0508 0.64453 c-0.65104 0 -1.263 -0.16275 -1.8359 -0.48828 c0.76822 -0.44271 1.3151 -1.1198 1.6406 -2.0313 c0.27344 -0.72916 0.71615 -1.9466 1.3281 -3.6523 l0.19531 -0.52734 l0.19531 -0.52734 c0.14322 -0.40365 0.27344 -0.76824 0.39063 -1.0938 c0.29947 -0.84635 0.57941 -1.6211 0.83982 -2.3242 c0.16928 -0.45572 0.25391 -0.89844 0.25391 -1.3281 c0 -0.80729 -0.29297 -1.5625 -0.87891 -2.2656 c1.3802 -0.2474 2.3111 -1.0287 2.793 -2.3438 c0.6901 -1.875 1.3737 -3.7564 2.0508 -5.6445 c0.59896 -1.6276 0.91797 -2.4936 0.95703 -2.5977 c0.11719 -0.33854 0.17578 -0.66406 0.17578 -0.97656 c0 -0.29947 -0.05209 -0.58594 -0.15625 -0.85938 c-0.20834 -0.5599 -0.59246 -1.0026 -1.1524 -1.3281 c0.57291 -0.32553 1.1849 -0.48828 1.8359 -0.48828 c0.89844 0 1.6927 0.29297 2.3828 0.87891 z M221.03475 37.5195 c0.35156 -0.53385 0.57289 -1.1198 0.66404 -1.7578 c0.20834 -0.22135 0.37762 -0.4427 0.50783 -0.66404 c0.32553 0.5599 0.48828 1.1654 0.48828 1.8164 c0 0.72916 -0.19531 1.3932 -0.58594 1.9922 l-0.48828 0 c-0.11719 -0.50781 -0.3125 -0.97006 -0.58594 -1.3867 z M209.06255 29.121000000000002 c0 -1.0547 0.4557 -1.849 1.3672 -2.3828 c0.05209 -0.026035 0.10418 -0.065098 0.15627 -0.11719 c0.32553 0.49479 0.73568 0.88541 1.2305 1.1719 c-1.2109 0.71615 -1.8164 1.7708 -1.8164 3.1641 l0 3.2227 l-0.9375 0 l0 -5.0586 z M222.10975 39.80467 c0.39063 0.61197 0.58594 1.276 0.58594 1.9922 c0 0.66406 -0.16275 1.276 -0.48828 1.8359 c-0.28646 -0.49479 -0.67709 -0.90494 -1.1719 -1.2305 l0.11719 -0.15625 c0.40365 -0.70313 0.60547 -1.4648 0.60547 -2.2852 l0 -0.15625 l0.35156 0 z M209.72655 13.574000000000002 l0.13674 0.000019073 l0.13672 -0.019531 c0.65104 0 1.263 0.16275 1.8359 0.48828 c-1.224 0.70313 -1.8359 1.7578 -1.8359 3.1641 l0 7.6563 c-0.625 -0.54688 -0.9375 -1.237 -0.9375 -2.0703 l0 -7.4219 c0 -0.67709 0.22135 -1.2761 0.66406 -1.7969 z M217.20675 40.85938 c0.83334 0 1.5234 0.319 2.0703 0.95703 l-0.11719 -0.019531 l-14.629 0 c-0.65104 0 -1.263 -0.16275 -1.8359 -0.48828 c0.19531 -0.11719 0.39713 -0.26693 0.60547 -0.44922 l13.906 0 z M220.27375 37.9687 c0.39063 0.61197 0.58592 1.276 0.58592 1.9922 c0 0.66406 -0.16275 1.276 -0.48828 1.8359 c-0.70313 -1.224 -1.7578 -1.8359 -3.1641 -1.8359 l-14.512 0 c-0.65104 0 -1.263 -0.16275 -1.8359 -0.48828 c1.2109 -0.70313 1.8229 -1.7578 1.8359 -3.1641 l0 -7.1875 c0 -1.3932 -0.61197 -2.4479 -1.8359 -3.1641 c1.224 -0.70313 1.8359 -1.7578 1.8359 -3.1641 l0 -7.4219 c0 -1.4063 -0.61197 -2.4609 -1.8359 -3.1641 c0.5599 -0.32553 1.1719 -0.48828 1.8359 -0.48828 c0.84635 0 1.6081 0.27344 2.2852 0.82031 l0 25.43 l15.293 0 z M217.20675 35.0781 c1.4063 0 2.4609 -0.60547 3.1641 -1.8164 c0.32553 0.5599 0.48828 1.1654 0.48828 1.8164 c0 0.72916 -0.19531 1.3932 -0.58594 1.9922 l-14.395 0 l0 -24.531 c0.67709 -0.54688 1.4388 -0.82031 2.2852 -0.82031 c0.65104 0 1.2565 0.16275 1.8164 0.48828 c-1.2109 0.70313 -1.8164 1.7578 -1.8164 3.1641 l0 7.4219 c0 1.4063 0.60547 2.4609 1.8164 3.1641 c-1.2109 0.71615 -1.8164 1.7708 -1.8164 3.1641 l0 5.957 l9.043 0 z M243.6519375 37.5195 c0.35156 -0.53385 0.57289 -1.1198 0.66404 -1.7578 c0.20834 -0.22135 0.37762 -0.4427 0.50783 -0.66404 c0.32553 0.5599 0.48828 1.1654 0.48828 1.8164 c0 0.72916 -0.19531 1.3932 -0.58594 1.9922 l-0.48828 0 c-0.11719 -0.50781 -0.3125 -0.97006 -0.58594 -1.3867 z M231.6797375 29.121000000000002 c0 -1.0547 0.4557 -1.849 1.3672 -2.3828 c0.05209 -0.026035 0.10418 -0.065098 0.15627 -0.11719 c0.32553 0.49479 0.73568 0.88541 1.2305 1.1719 c-1.2109 0.71615 -1.8164 1.7708 -1.8164 3.1641 l0 3.2227 l-0.9375 0 l0 -5.0586 z M244.7269375 39.80467 c0.39063 0.61197 0.58594 1.276 0.58594 1.9922 c0 0.66406 -0.16275 1.276 -0.48828 1.8359 c-0.28646 -0.49479 -0.67709 -0.90494 -1.1719 -1.2305 l0.11719 -0.15625 c0.40365 -0.70313 0.60547 -1.4648 0.60547 -2.2852 l0 -0.15625 l0.35156 0 z M232.3437375 13.574000000000002 l0.13674 0.000019073 l0.13672 -0.019531 c0.65104 0 1.263 0.16275 1.8359 0.48828 c-1.224 0.70313 -1.8359 1.7578 -1.8359 3.1641 l0 7.6563 c-0.625 -0.54688 -0.9375 -1.237 -0.9375 -2.0703 l0 -7.4219 c0 -0.67709 0.22135 -1.2761 0.66406 -1.7969 z M239.8239375 40.85938 c0.83334 0 1.5234 0.319 2.0703 0.95703 l-0.11719 -0.019531 l-14.629 0 c-0.65104 0 -1.263 -0.16275 -1.8359 -0.48828 c0.19531 -0.11719 0.39713 -0.26693 0.60547 -0.44922 l13.906 0 z M242.8909375 37.9687 c0.39063 0.61197 0.58592 1.276 0.58592 1.9922 c0 0.66406 -0.16275 1.276 -0.48828 1.8359 c-0.70313 -1.224 -1.7578 -1.8359 -3.1641 -1.8359 l-14.512 0 c-0.65104 0 -1.263 -0.16275 -1.8359 -0.48828 c1.2109 -0.70313 1.8229 -1.7578 1.8359 -3.1641 l0 -7.1875 c0 -1.3932 -0.61197 -2.4479 -1.8359 -3.1641 c1.224 -0.70313 1.8359 -1.7578 1.8359 -3.1641 l0 -7.4219 c0 -1.4063 -0.61197 -2.4609 -1.8359 -3.1641 c0.5599 -0.32553 1.1719 -0.48828 1.8359 -0.48828 c0.84635 0 1.6081 0.27344 2.2852 0.82031 l0 25.43 l15.293 0 z M239.8239375 35.0781 c1.4063 0 2.4609 -0.60547 3.1641 -1.8164 c0.32553 0.5599 0.48828 1.1654 0.48828 1.8164 c0 0.72916 -0.19531 1.3932 -0.58594 1.9922 l-14.395 0 l0 -24.531 c0.67709 -0.54688 1.4388 -0.82031 2.2852 -0.82031 c0.65104 0 1.2565 0.16275 1.8164 0.48828 c-1.2109 0.70313 -1.8164 1.7578 -1.8164 3.1641 l0 7.4219 c0 1.4063 0.60547 2.4609 1.8164 3.1641 c-1.2109 0.71615 -1.8164 1.7708 -1.8164 3.1641 l0 5.957 l9.043 0 z M251.13315625 14.043 c-0.3125 0.15625 -0.53385 0.41014 -0.66406 0.7617 c-0.065098 0.20834 -0.097656 0.45574 -0.097656 0.74221 l0 0.25391 c0.039063 0.44271 0.13672 0.85938 0.29297 1.25 l-1.0156 -2.207 c-0.26041 -0.58594 -0.39063 -1.0156 -0.39063 -1.2891 l0.058594 0 c0.65104 0 1.2565 0.16275 1.8164 0.48828 z M252.40215625 40.17576 c0.41666 0.3125 0.87891 0.54689 1.3867 0.70314 l0 0.35156 c-0.66406 0.53385 -1.4258 0.80078 -2.2852 0.80078 c-0.65104 0 -1.2565 -0.16275 -1.8164 -0.48828 c0.23438 -0.13021 0.45572 -0.29949 0.66406 -0.50783 c0.76822 -0.11719 1.4518 -0.40365 2.0508 -0.85938 z M264.64815625 13.555 c0.66406 0 1.2761 0.16271 1.836 0.48824 c-0.9375 0.35156 -1.7383 1.0287 -2.4023 2.0313 l-4.6289 9.3359 c-0.42969 0.84635 -0.64453 1.5299 -0.64453 2.0508 l0 0.039063 c0 0.52084 0.22135 0.98959 0.66406 1.4063 c-0.70313 0.10416 -1.3021 0.41666 -1.7969 0.9375 c-0.48178 0.50781 -0.72266 1.0807 -0.72266 1.7188 l0 6.9141 l0.019531 0.11719 c-0.63803 -0.5599 -0.95703 -1.2435 -0.95703 -2.0508 l0 -6.8359 c0 -0.40365 0.16928 -0.78125 0.50781 -1.1328 c0.35156 -0.33854 0.76172 -0.54035 1.2305 -0.60545 c0.3776 -0.05209 0.625 -0.26043 0.74219 -0.62502 c0.039063 -0.10416 0.058594 -0.20832 0.058594 -0.31248 c0 -0.22135 -0.097656 -0.42316 -0.29297 -0.60545 c-0.26041 -0.2474 -0.39063 -0.50781 -0.39063 -0.78125 l0 -0.039063 c0 -0.3776 0.18229 -0.92447 0.54688 -1.6406 l4.6094 -9.2773 c0.29947 -0.45572 0.59895 -0.80729 0.89842 -1.0547 c0.27344 -0.05209 0.51432 -0.078125 0.72266 -0.078125 z M257.57815625 40.37105 c0.32553 0.49479 0.73568 0.88541 1.2305 1.1719 c-0.57291 0.32553 -1.1784 0.48828 -1.8164 0.48828 c-0.85938 0 -1.6276 -0.26693 -2.3047 -0.80078 l0 -0.17578 l0.23438 0.019531 l0.21484 0.019531 c0.80729 0 1.569 -0.20182 2.2852 -0.60547 z M240.17579625 12.207 c0.5599 -0.32553 1.1719 -0.48828 1.8359 -0.48828 c0.72916 0 1.4258 0.18229 2.0898 0.54688 l7.8516 16.035 l0 11.094 c-0.66406 0.53385 -1.4258 0.80078 -2.2852 0.80078 c-0.65104 0 -1.2565 -0.16275 -1.8164 -0.48828 c1.224 -0.71615 1.8359 -1.7708 1.8359 -3.1641 l0 -6.8164 c0 -0.63803 -0.24088 -1.2109 -0.72266 -1.7188 c-0.49479 -0.52084 -1.1003 -0.83334 -1.8164 -0.9375 c0.45572 -0.42969 0.6901 -0.91146 0.70313 -1.4453 c0 -0.53385 -0.22135 -1.2174 -0.66406 -2.0508 l-4.6094 -9.3359 c-0.66406 -1.0026 -1.4648 -1.6797 -2.4023 -2.0313 z M255.52715625 12.207 c0.5599 -0.32553 1.1653 -0.48828 1.8164 -0.48828 c0.83334 0 1.569 0.306 2.207 0.91797 l-7.1289 14.551 l-7.1484 -14.57 c0.63803 -0.59896 1.3737 -0.89844 2.207 -0.89844 c0.65104 0 1.2565 0.16275 1.8164 0.48828 c-0.625 0.29947 -0.9375 0.7552 -0.9375 1.3672 c0 0.40365 0.15625 0.95053 0.46875 1.6406 l3.6133 8.0273 l3.5547 -8.0273 c0.3125 -0.6901 0.46875 -1.237 0.46875 -1.6406 c0 -0.61197 -0.3125 -1.0677 -0.9375 -1.3672 z M260.74215625 12.265999999999998 c0.66406 -0.36459 1.3541 -0.54688 2.0703 -0.54688 c0.66406 0 1.276 0.16275 1.8359 0.48828 c-0.9375 0.35156 -1.7383 1.0287 -2.4023 2.0313 l-4.6289 9.3359 c-0.42969 0.83334 -0.65104 1.5169 -0.66406 2.0508 c0 0.53385 0.22787 1.0156 0.68359 1.4453 c-0.70313 0.10416 -1.3021 0.41666 -1.7969 0.9375 c-0.48178 0.50781 -0.72266 1.0807 -0.72266 1.7188 l0 6.8164 c0 1.3932 0.6185 2.4479 1.8555 3.1641 c-0.57291 0.32553 -1.1849 0.48828 -1.8359 0.48828 c-0.84635 0 -1.6081 -0.26693 -2.2852 -0.80078 l0 -11.094 z"></path></g></svg>